<svg width="2976" height="1495" viewBox="0 0 2976 1495" fill="none" xmlns="http://www.w3.org/2000/svg">
<rect width="2976" height="1495" fill="#0E091B"/>
<path d="M638.973 804.971C604.219 791.376 568.378 780.777 531.837 773.289C491.615 763.371 478.286 750.37 478.286 727.478C478.286 699.987 498.147 684.617 540.58 684.617C586.15 684.617 607.079 704.185 611.143 740.826H684.214C681.491 671.428 629.109 620.692 538.071 620.692C449.914 620.692 398.571 666.735 398.571 731.796C398.571 765.387 406.286 774.61 414.001 786.056C421.716 797.502 448.832 815.576 467.235 821.87C499.169 834.51 532.288 843.894 566.092 849.874C611.301 859.592 624.428 872.886 624.428 894.33C624.428 926.573 596.489 947.183 551.895 947.183C503.651 947.183 472.723 924.864 471.643 887.656H398.571C400.166 969.2 462.812 1007.79 551.895 1007.79C636.196 1007.79 697.5 974.219 697.5 894.33C697.5 875.122 692.152 855.567 682.022 839.696C671.852 823.685 656.726 811.485 638.973 804.971Z" fill="url(#paint0_linear_84_849)"/>
<path d="M2598 707.455H2511.64L2412 827.436V620.692H2338.93V1007.79H2412V914.353L2451.86 874.308L2511.64 1007.79H2591.36L2505 820.915L2598 707.455Z" fill="url(#paint1_linear_84_849)"/>
<path d="M996.429 707.455H910.072L810.429 827.589V620.692H737.357V1007.79H810.429V914.353L850.286 874.308L910.072 1007.79H989.786L903.429 820.915L996.429 707.455Z" fill="url(#paint2_linear_84_849)"/>
<path d="M1741.07 620.692H1668V1007.79H1741.07V620.692Z" fill="url(#paint3_linear_84_849)"/>
<path d="M2093.14 620.692H1780.93V687.433H1893.86V1007.79H1973.57V687.433H2093.14V620.692Z" fill="url(#paint4_linear_84_849)"/>
<path d="M2167.8 707.455C2082.58 707.455 2033.36 764.332 2033.36 852.403C2033.36 955.425 2079.73 1007.62 2172.37 1007.62C2199.98 1009.12 2227.26 1000.84 2249.6 984.177C2271.95 967.478 2288.02 943.425 2295.1 916.054H2219.3C2215.56 926.212 2208.66 934.835 2199.65 940.582C2190.65 946.308 2180.08 948.864 2169.52 947.876C2133.33 947.876 2108.72 917.176 2106.43 874.308H2299.07C2298.51 761.389 2253.26 707.455 2167.8 707.455ZM2107.37 829.645C2110.22 790.841 2134.45 767.142 2164.17 767.142C2172.01 767.108 2181.49 768.79 2188.66 771.987C2195.85 775.177 2202.32 779.856 2207.65 785.736C2212.99 791.582 2217.08 798.497 2219.66 806.052C2222.27 813.613 2223.31 821.649 2222.72 829.645H2107.37Z" fill="url(#paint5_linear_84_849)"/>
<path d="M1302 857.496C1302 808.521 1286.14 768.71 1257.7 742.481C1221.89 709.277 1178.2 708.183 1159.99 707.662C1140.04 707.042 1093.08 705.687 1056.4 739.825C1014.76 778.541 1015.99 835.478 1016.5 857.496C1016.96 878.313 1018.18 932.119 1059.68 971.363C1084.17 994.622 1118.5 1007.79 1160.76 1007.79C1247.77 1007.53 1302 947.63 1302 857.496ZM1158.76 927.487C1142.03 925.238 1125.12 924.611 1108.27 925.619C1097.2 904.101 1091.32 880.215 1091.14 855.934C1091.14 836.886 1091.14 794.052 1120.55 773.235C1132.25 765.513 1145.94 761.496 1159.89 761.683C1173.84 761.082 1187.6 765.14 1199.08 773.235C1225.57 793.064 1226.96 831.053 1227.51 855.307C1228.07 884.386 1221.63 913.165 1208.79 939.147C1192.57 933.601 1175.87 929.623 1158.92 927.28L1158.76 927.487Z" fill="url(#paint6_linear_84_849)"/>
<path d="M1483.1 1007.79C1525.41 1007.79 1559.83 994.676 1584.18 971.363C1625.67 932.119 1626.9 878.359 1627.36 857.489C1627.87 835.478 1629.15 778.548 1587.51 739.825C1550.83 705.687 1503.82 707.042 1483.87 707.662C1465.65 708.183 1422.07 709.277 1386.16 742.481C1357.71 768.503 1341.86 808.521 1341.86 857.489C1341.86 947.89 1396.08 1007.79 1483.1 1007.79ZM1434.91 939.2C1422.07 913.211 1415.64 884.439 1416.18 855.36C1416.75 831.107 1418.18 792.911 1444.63 773.289C1456.1 765.193 1469.87 761.135 1483.82 761.736C1497.76 761.542 1511.45 765.567 1523.15 773.289C1552.57 794.105 1552.57 836.933 1552.57 855.981C1552.38 880.268 1546.5 904.155 1535.43 925.665C1518.58 924.664 1501.67 925.292 1484.94 927.541C1467.94 929.81 1451.19 933.714 1434.91 939.2Z" fill="url(#paint7_linear_84_849)"/>
<path d="M1461.43 580.647L1321.93 620.692L1189.07 580.647C1179.29 589.861 1168.62 602.036 1162.5 614.018C1155.1 627.199 1151.15 639.059 1149.21 654.063C1174.43 654.283 1200.72 659.787 1224.63 667.838C1262.74 680.826 1294.53 704.586 1321.93 734.152C1349.5 704.672 1386.36 680.926 1424.49 667.838C1448.42 659.788 1476.06 654.284 1501.29 654.063C1499.46 639.099 1495.21 627.249 1488 614.018C1481.88 602.036 1471.21 589.861 1461.43 580.647Z" fill="url(#paint8_linear_84_849)"/>
<path d="M1395 1013.58L1321.93 1094.55L1248.86 1013.58C1268.79 1007.34 1295.36 1001.12 1321.55 1001.12C1348.5 1001.12 1375.07 1007.34 1395 1013.58Z" fill="url(#paint9_linear_84_849)"/>
<path d="M1547.79 589.681C1550.36 589.681 1549.29 589.681 1554.43 589.681C1559.57 589.681 1558.5 589.681 1561.07 589.681V502.917L1620.86 480.536L1321.93 400.446L1023 480.536L1321.93 580.647L1547.79 509.591V589.681ZM1321.93 507.232C1308.64 507.232 1295.36 500.558 1295.36 490.547C1295.36 480.536 1308.64 473.861 1321.93 473.861C1335.21 473.861 1348.5 480.536 1348.5 490.547C1348.5 500.558 1335.21 507.232 1321.93 507.232Z" fill="url(#paint10_linear_84_849)"/>
<path d="M1574.36 587.321C1574.36 576.263 1565.43 567.299 1554.43 567.299C1543.42 567.299 1534.5 576.263 1534.5 587.321V660.736C1534.5 671.794 1543.42 680.759 1554.43 680.759C1565.43 680.759 1574.36 671.794 1574.36 660.736V587.321Z" fill="#D1ED9B"/>
<defs>
<linearGradient id="paint0_linear_84_849" x1="361.796" y1="768.23" x2="740.067" y2="868.115" gradientUnits="userSpaceOnUse">
<stop stop-color="#F36466"/>
<stop offset="1" stop-color="#F8A175"/>
</linearGradient>
<linearGradient id="paint1_linear_84_849" x1="2284.46" y1="891.888" x2="2642.13" y2="984.09" gradientUnits="userSpaceOnUse">
<stop offset="0.21391" stop-color="#60D2D3"/>
<stop offset="1" stop-color="#5AE2DA"/>
</linearGradient>
<linearGradient id="paint2_linear_84_849" x1="726.649" y1="858.297" x2="994.2" y2="909.509" gradientUnits="userSpaceOnUse">
<stop offset="0.269968" stop-color="#F8A175"/>
<stop offset="1" stop-color="#F3B87B"/>
</linearGradient>
<linearGradient id="paint3_linear_84_849" x1="1571.55" y1="906.003" x2="1915.66" y2="910.956" gradientUnits="userSpaceOnUse">
<stop offset="0.435764" stop-color="#D1ED9B"/>
</linearGradient>
<linearGradient id="paint4_linear_84_849" x1="1819.61" y1="916.275" x2="2195.27" y2="1005.91" gradientUnits="userSpaceOnUse">
<stop offset="0.0080827" stop-color="#C5E7A1"/>
<stop offset="1" stop-color="#61CFD1"/>
</linearGradient>
<linearGradient id="paint5_linear_84_849" x1="2032.29" y1="877.037" x2="2450.06" y2="934.299" gradientUnits="userSpaceOnUse">
<stop stop-color="#93DBBA"/>
<stop offset="0.56073" stop-color="#60D2D3"/>
</linearGradient>
<linearGradient id="paint6_linear_84_849" x1="995.266" y1="848.019" x2="1272.69" y2="951.546" gradientUnits="userSpaceOnUse">
<stop offset="0.309649" stop-color="#F3B87B"/>
<stop offset="0.930806" stop-color="#F2D37A"/>
</linearGradient>
<linearGradient id="paint7_linear_84_849" x1="1281.34" y1="840.477" x2="1629.71" y2="913.493" gradientUnits="userSpaceOnUse">
<stop offset="0.158653" stop-color="#F8D97D"/>
<stop offset="1" stop-color="#C8F0A1"/>
</linearGradient>
<linearGradient id="paint8_linear_84_849" x1="1205.34" y1="633.095" x2="1478.38" y2="686.534" gradientUnits="userSpaceOnUse">
<stop stop-color="#F3B87B"/>
<stop offset="0.596514" stop-color="#E8CB75"/>
<stop offset="0.951389" stop-color="#D1EC9A"/>
</linearGradient>
<linearGradient id="paint9_linear_84_849" x1="1292.77" y1="1011.37" x2="1371.25" y2="1082.38" gradientUnits="userSpaceOnUse">
<stop stop-color="#F2D47B"/>
<stop offset="1" stop-color="#D3EC99"/>
</linearGradient>
<linearGradient id="paint10_linear_84_849" x1="1138.12" y1="529.362" x2="1570.17" y2="508.884" gradientUnits="userSpaceOnUse">
<stop stop-color="#F3B87B"/>
<stop offset="0.803454" stop-color="#D4EB98"/>
</linearGradient>
</defs>
</svg>
