<svg width="2000" height="2000" viewBox="0 0 2000 2000" fill="none" xmlns="http://www.w3.org/2000/svg">
<path fill-rule="evenodd" clip-rule="evenodd" d="M1447.38 643.557V530.314L1000 671.001L407.882 472.785L1000 314.213L1592.12 472.785L1473.7 517.1V645.108C1488.23 651.145 1498.45 665.477 1498.45 682.196V829.389C1498.45 851.56 1480.48 869.533 1458.31 869.533C1436.14 869.533 1418.16 851.56 1418.16 829.389V682.196C1418.16 663.813 1430.52 648.316 1447.38 643.557ZM1000 525.643C973.684 525.643 947.368 512.428 947.368 492.607C947.368 472.785 973.684 459.571 1000 459.571C1026.32 459.571 1052.63 472.785 1052.63 492.607C1052.63 512.428 1026.32 525.643 1000 525.643ZM1278.42 668.815L1000.06 749.102L734.964 668.815C715.44 687.288 694.152 711.698 681.944 735.721C667.178 762.149 659.292 785.927 655.435 816.008C705.75 816.45 758.214 827.485 805.918 843.627C881.962 869.667 945.387 917.304 1000.06 976.583C1055.09 917.478 1128.62 869.868 1204.72 843.627C1252.45 827.488 1307.61 816.452 1357.95 816.008C1354.3 786.007 1345.82 762.248 1331.44 735.721C1319.23 711.698 1297.94 687.288 1278.42 668.815ZM869.347 991.722C925.313 1043.14 956.511 1121.19 956.511 1217.2C956.511 1393.89 849.821 1511.32 678.617 1511.83C595.479 1511.83 527.933 1486.02 479.731 1440.42C398.096 1363.49 395.678 1258 394.776 1217.2C393.77 1174.03 391.352 1062.41 473.288 986.514C545.447 919.59 637.852 922.246 677.101 923.463L677.61 923.478C713.747 924.505 799.218 926.936 869.347 991.722ZM575.351 1350.74C608.497 1348.77 642.077 1349.59 675 1354L674.997 1354C708.351 1358.59 741.209 1366.39 773.126 1377.26C798.39 1326.33 811.042 1269.91 809.957 1212.9C808.86 1165.36 806.141 1090.88 754.005 1052.01C731.433 1036.14 704.352 1028.19 676.905 1029.36C649.458 1029 622.521 1036.87 599.504 1052.01C541.63 1092.82 541.631 1176.79 541.631 1214.13C541.997 1261.73 553.563 1308.56 575.351 1350.74ZM1519.25 1440.42C1470.77 1486.12 1402.23 1511.83 1318 1511.83C1144.76 1511.83 1036.8 1394.4 1036.8 1217.18C1036.8 1121.19 1068.37 1042.74 1125 991.722C1196.17 926.93 1282.47 924.505 1319.03 923.477L1319.53 923.463C1359.25 922.246 1452.84 919.59 1525.88 986.514C1608.77 1062.43 1606.23 1174.03 1605.22 1217.18C1604.29 1258.1 1601.84 1363.49 1519.25 1440.42ZM1184.78 1213.01C1183.69 1270.02 1196.5 1326.42 1222.06 1377.37C1254.46 1366.61 1287.82 1358.96 1321.66 1354.51C1354.98 1350.1 1388.64 1348.87 1422.19 1350.83C1444.24 1308.67 1455.93 1261.84 1456.31 1214.23C1456.31 1176.88 1456.31 1092.93 1397.75 1052.12C1374.44 1036.98 1347.19 1029.09 1319.43 1029.47C1291.65 1028.29 1264.25 1036.25 1241.41 1052.12C1188.76 1090.58 1185.9 1165.46 1184.78 1213.01ZM1000 1685.79L1143.85 1523.43C1104.62 1510.94 1052.31 1498.45 999.255 1498.45C947.692 1498.45 895.383 1510.94 856.152 1523.43L1000 1685.79Z" fill="#0E091B"/>
</svg>
